{
	"asset":{
		"generator":"Khronos glTF Blender I/O v3.6.27",
		"version":"2.0"
	},
	"scene":0,
	"scenes":[
		{
			"name":"Scene",
			"nodes":[
				0,
				1
			]
		}
	],
	"nodes":[
		{
			"mesh":0,
			"name":"USS_Seawolf",
			"rotation":[
				0.0038018138147890568,
				0,
				0,
				0.9999927878379822
			],
			"translation":[
				0,
				1.1742035150527954,
				0
			]
		},
		{
			"mesh":1,
			"name":"USS_Seawolf #105948",
			"rotation":[
				0.0038018138147890568,
				0,
				0,
				0.9999927878379822
			],
			"translation":[
				0,
				1.1742035150527954,
				0
			]
		}
	],
	"materials":[
		{
			"doubleSided":true,
			"name":"Default OBJ.003",
			"pbrMetallicRoughness":{
				"baseColorTexture":{
					"index":0
				},
				"metallicFactor":0,
				"roughnessFactor":0.5
			}
		},
		{
			"doubleSided":true,
			"name":"Default OBJ.004",
			"pbrMetallicRoughness":{
				"baseColorTexture":{
					"index":1
				},
				"metallicFactor":0,
				"roughnessFactor":0.5
			}
		}
	],
	"meshes":[
		{
			"name":"USS_Seawolf",
			"primitives":[
				{
					"attributes":{
						"POSITION":0,
						"NORMAL":1,
						"TEXCOORD_0":2
					},
					"indices":3,
					"material":0
				}
			]
		},
		{
			"name":"USS_Seawolf #105948",
			"primitives":[
				{
					"attributes":{
						"POSITION":4,
						"NORMAL":5,
						"TEXCOORD_0":6
					},
					"indices":7,
					"material":1
				}
			]
		}
	],
	"textures":[
		{
			"sampler":0,
			"source":0
		},
		{
			"sampler":0,
			"source":0
		}
	],
	"images":[
		{
			"mimeType":"image/png",
			"name":"Seawolf_A",
			"uri":"Seawolf_A.png"
		}
	],
	"accessors":[
		{
			"bufferView":0,
			"componentType":5126,
			"count":7640,
			"max":[
				7.69688606262207,
				2.270603895187378,
				1.2434099912643433
			],
			"min":[
				-7.6968889236450195,
				-1.2765300273895264,
				-1.243412971496582
			],
			"type":"VEC3"
		},
		{
			"bufferView":1,
			"componentType":5126,
			"count":7640,
			"type":"VEC3"
		},
		{
			"bufferView":2,
			"componentType":5126,
			"count":7640,
			"type":"VEC2"
		},
		{
			"bufferView":3,
			"componentType":5123,
			"count":28020,
			"type":"SCALAR"
		},
		{
			"bufferView":4,
			"componentType":5126,
			"count":2371,
			"max":[
				7.696107864379883,
				1.280413031578064,
				1.2434029579162598
			],
			"min":[
				-7.696887969970703,
				-1.2762130498886108,
				-1.2434049844741821
			],
			"type":"VEC3"
		},
		{
			"bufferView":5,
			"componentType":5126,
			"count":2371,
			"type":"VEC3"
		},
		{
			"bufferView":6,
			"componentType":5126,
			"count":2371,
			"type":"VEC2"
		},
		{
			"bufferView":7,
			"componentType":5123,
			"count":7080,
			"type":"SCALAR"
		}
	],
	"bufferViews":[
		{
			"buffer":0,
			"byteLength":91680,
			"byteOffset":0,
			"target":34962
		},
		{
			"buffer":0,
			"byteLength":91680,
			"byteOffset":91680,
			"target":34962
		},
		{
			"buffer":0,
			"byteLength":61120,
			"byteOffset":183360,
			"target":34962
		},
		{
			"buffer":0,
			"byteLength":56040,
			"byteOffset":244480,
			"target":34963
		},
		{
			"buffer":0,
			"byteLength":28452,
			"byteOffset":300520,
			"target":34962
		},
		{
			"buffer":0,
			"byteLength":28452,
			"byteOffset":328972,
			"target":34962
		},
		{
			"buffer":0,
			"byteLength":18968,
			"byteOffset":357424,
			"target":34962
		},
		{
			"buffer":0,
			"byteLength":14160,
			"byteOffset":376392,
			"target":34963
		}
	],
	"samplers":[
		{
			"magFilter":9729,
			"minFilter":9987
		}
	],
	"buffers":[
		{
			"byteLength":390552,
			"uri":"seawolf.bin"
		}
	]
}
